<?xml version="1.0" encoding="UTF-8" standalone="no"?>
<!-- Created with Inkscape (http://www.inkscape.org/) -->

<svg
   xmlns:dc="http://purl.org/dc/elements/1.1/"
   xmlns:cc="http://creativecommons.org/ns#"
   xmlns:rdf="http://www.w3.org/1999/02/22-rdf-syntax-ns#"
   xmlns:svg="http://www.w3.org/2000/svg"
   xmlns="http://www.w3.org/2000/svg"
   xmlns:sodipodi="http://sodipodi.sourceforge.net/DTD/sodipodi-0.dtd"
   xmlns:inkscape="http://www.inkscape.org/namespaces/inkscape"
   width="489.82083"
   height="445.05298"
   viewBox="0 0 489.82084 445.05299"
   id="svg4360"
   version="1.1"
   inkscape:version="0.91 r13725"
   sodipodi:docname="logo.svg">
  <defs
     id="defs4362" />
  <sodipodi:namedview
     id="base"
     pagecolor="#ffffff"
     bordercolor="#666666"
     borderopacity="1.0"
     inkscape:pageopacity="0.0"
     inkscape:pageshadow="2"
     inkscape:zoom="0.35"
     inkscape:cx="-182.23247"
     inkscape:cy="222.52651"
     inkscape:document-units="px"
     inkscape:current-layer="layer1"
     showgrid="false"
     fit-margin-top="0"
     fit-margin-left="0"
     fit-margin-right="0"
     fit-margin-bottom="0"
     units="px"
     inkscape:window-width="1536"
     inkscape:window-height="801"
     inkscape:window-x="-8"
     inkscape:window-y="-8"
     inkscape:window-maximized="1" />
  <metadata
     id="metadata4365">
    <rdf:RDF>
      <cc:Work
         rdf:about="">
        <dc:format>image/svg+xml</dc:format>
        <dc:type
           rdf:resource="http://purl.org/dc/dcmitype/StillImage" />
        <dc:title></dc:title>
      </cc:Work>
    </rdf:RDF>
  </metadata>
  <g
     inkscape:label="Layer 1"
     inkscape:groupmode="layer"
     id="layer1"
     transform="translate(-130.08961,-309.83572)">
    <g
       id="g4938">
      <g
         style="stroke:#ffffff;stroke-opacity:1;stroke-width:1.17024568;stroke-miterlimit:4;stroke-dasharray:none;fill:#333333;fill-opacity:1;stroke-linejoin:round;stroke-linecap:round"
         id="g4333"
         transform="matrix(5.1271285,0,0,5.1271285,-1532.534,-2165.5335)">
        <path
           inkscape:transform-center-x="-14.379602"
           sodipodi:nodetypes="cssczc"
           inkscape:connector-curvature="0"
           id="path4273"
           d="m 407.65071,513.69574 c -0.36872,0.63863 -20.5506,12.29063 -21.28803,12.29065 -0.73744,-10e-6 34.00414,-81.62275 -21.28804,-12.29066 -0.45979,0.57656 -0.36871,-23.94265 0,-24.5813 8.84293,-3.92187 25.49235,-7.12428 30.74602,-4.09107 5.25369,3.0332 14.37806,18.28293 11.83005,28.67238 z"
           style="opacity:1;fill:#333333;fill-opacity:1;fill-rule:nonzero;stroke:#ffffff;stroke-width:1.17024568;stroke-miterlimit:4;stroke-dasharray:none;stroke-opacity:1;stroke-linejoin:round;stroke-linecap:round"
           inkscape:transform-center-y="-21.2965" />
        <path
           inkscape:transform-center-y="-21.682529"
           style="opacity:1;fill:#333333;fill-opacity:1;fill-rule:nonzero;stroke:#ffffff;stroke-width:1.17024568;stroke-miterlimit:4;stroke-dasharray:none;stroke-opacity:1;stroke-linejoin:round;stroke-linecap:round"
           d="m 379.01985,489.11443 c 0.36872,0.63865 0.36871,23.94267 0,24.5813 -0.36872,0.63865 -53.6853,-70.25983 -21.28804,12.29066 0.26942,0.68646 -20.91931,-11.65201 -21.28803,-12.29065 1.02502,-9.61914 6.57637,-25.63917 11.83005,-28.67238 5.25367,-3.03321 23.0225,-3.31029 30.74602,4.09107 z"
           id="path4249"
           inkscape:connector-curvature="0"
           sodipodi:nodetypes="cssczc"
           inkscape:transform-center-x="14.177161" />
        <path
           inkscape:transform-center-y="21.682532"
           inkscape:transform-center-x="-14.177158"
           sodipodi:nodetypes="cssczc"
           inkscape:connector-curvature="0"
           id="path4265"
           d="m 365.07464,563.28584 c -0.36872,-0.63864 -0.36871,-23.94266 0,-24.5813 0.36872,-0.63864 53.6853,70.25983 21.28803,-12.29066 -0.26941,-0.68647 20.91931,11.65201 21.28803,12.29065 -1.02502,9.61914 -6.57636,25.63917 -11.83003,28.67238 -5.25368,3.03322 -23.02251,3.31029 -30.74603,-4.09107 z"
           style="opacity:1;fill:#333333;fill-opacity:1;fill-rule:nonzero;stroke:#ffffff;stroke-width:1.17024568;stroke-miterlimit:4;stroke-dasharray:none;stroke-opacity:1;stroke-linejoin:round;stroke-linecap:round" />
        <path
           style="opacity:1;fill:#333333;fill-opacity:1;fill-rule:nonzero;stroke:#ffffff;stroke-width:1.17024568;stroke-miterlimit:4;stroke-dasharray:none;stroke-opacity:1;stroke-linejoin:round;stroke-linecap:round"
           d="m 336.44378,538.70453 c 0.36872,-0.63864 20.5506,-12.29064 21.28803,-12.29065 0.73744,0 -34.00415,81.62275 21.28804,12.29065 0.45979,-0.57655 0.36872,23.94266 0,24.5813 -8.84293,3.92188 -25.49236,7.12429 -30.74603,4.09108 -5.25368,-3.03321 -14.37805,-18.28293 -11.83004,-28.67238 z"
           id="path4261"
           inkscape:connector-curvature="0"
           sodipodi:nodetypes="cssczc"
           inkscape:transform-center-x="14.379598"
           inkscape:transform-center-y="21.2965" />
        <path
           inkscape:transform-center-x="27.435675"
           sodipodi:nodetypes="cssczc"
           inkscape:connector-curvature="0"
           id="path4257"
           d="m 343.41639,501.61883 c 0.73744,0 20.91931,11.65202 21.28803,12.29065 0.36872,0.63864 -87.68945,11.36292 0,24.58131 0.7292,0.10991 -20.55059,12.29065 -21.28803,12.29065 -7.81791,-5.69726 -18.91599,-18.51489 -18.91599,-24.58131 0,-6.06642 8.64446,-21.59322 18.91599,-24.5813 z"
           style="opacity:1;fill:#333333;fill-opacity:1;fill-rule:nonzero;stroke:#ffffff;stroke-width:1.17024568;stroke-miterlimit:4;stroke-dasharray:none;stroke-opacity:1;stroke-linejoin:round;stroke-linecap:round" />
        <path
           inkscape:transform-center-x="14.177161"
           sodipodi:nodetypes="cssczc"
           inkscape:connector-curvature="0"
           id="path4277"
           d="m 379.01985,489.11443 c 0.36872,0.63865 0.36871,23.94267 0,24.5813 -0.36872,0.63865 -53.6853,-70.25983 -21.28804,12.29066 0.26942,0.68646 -20.91931,-11.65201 -21.28803,-12.29065 1.02502,-9.61914 6.57637,-25.63917 11.83005,-28.67238 5.25367,-3.03321 23.0225,-3.31029 30.74602,4.09107 z"
           style="opacity:1;fill:#333333;fill-opacity:1;fill-rule:nonzero;stroke:#ffffff;stroke-width:1.17024568;stroke-miterlimit:4;stroke-dasharray:none;stroke-opacity:1;stroke-linejoin:round;stroke-linecap:round"
           inkscape:transform-center-y="-21.682529" />
        <path
           inkscape:transform-center-y="-21.2965"
           style="opacity:1;fill:#333333;fill-opacity:1;fill-rule:nonzero;stroke:#ffffff;stroke-width:1.17024568;stroke-miterlimit:4;stroke-dasharray:none;stroke-opacity:1;stroke-linejoin:round;stroke-linecap:round"
           d="m 407.65071,513.69574 c -0.36872,0.63863 -20.5506,12.29063 -21.28803,12.29065 -0.73744,-10e-6 34.00414,-81.62275 -21.28804,-12.29066 -0.45979,0.57656 -0.36871,-23.94265 0,-24.5813 8.84293,-3.92187 25.49235,-7.12428 30.74602,-4.09107 5.25369,3.0332 14.37806,18.28293 11.83005,28.67238 z"
           id="path4275"
           inkscape:connector-curvature="0"
           sodipodi:nodetypes="cssczc"
           inkscape:transform-center-x="-14.379602" />
        <path
           style="opacity:1;fill:#333333;fill-opacity:1;fill-rule:nonzero;stroke:#ffffff;stroke-width:1.17024568;stroke-miterlimit:4;stroke-dasharray:none;stroke-opacity:1;stroke-linejoin:round;stroke-linecap:round"
           d="m 400.6781,550.78144 c -0.73743,0 -20.9193,-11.65202 -21.28803,-12.29065 -0.36871,-0.63864 87.68945,-11.36292 0,-24.58131 -0.72921,-0.10991 20.55059,-12.29064 21.28803,-12.29065 7.81791,5.69727 18.91599,18.51488 18.91599,24.5813 1e-5,6.06643 -8.64446,21.59323 -18.91599,24.58131 z"
           id="path4269"
           inkscape:connector-curvature="0"
           sodipodi:nodetypes="cssczc"
           inkscape:transform-center-x="-27.435677" />
      </g>
      <rect
         y="496.64792"
         x="350.71432"
         height="71.428574"
         width="48.57143"
         id="rect4930"
         style="opacity:0.63840051;fill:#ff0000;fill-opacity:1;fill-rule:nonzero;stroke:#ffffff;stroke-width:6;stroke-linecap:round;stroke-linejoin:round;stroke-miterlimit:4;stroke-dasharray:none;stroke-opacity:1" />
      <rect
         style="opacity:0.63840051;fill:#ff0000;fill-opacity:1;fill-rule:nonzero;stroke:#ffffff;stroke-width:6;stroke-linecap:round;stroke-linejoin:round;stroke-miterlimit:4;stroke-dasharray:none;stroke-opacity:1"
         id="rect4932"
         width="48.57143"
         height="71.428574"
         x="350.71432"
         y="496.64792" />
      <rect
         y="496.64792"
         x="350.71432"
         height="71.428574"
         width="48.57143"
         id="rect4934"
         style="opacity:0.63840051;fill:#ff0000;fill-opacity:1;fill-rule:nonzero;stroke:#ffffff;stroke-width:6;stroke-linecap:round;stroke-linejoin:round;stroke-miterlimit:4;stroke-dasharray:none;stroke-opacity:1" />
      <rect
         style="opacity:0.63840051;fill:#ff0000;fill-opacity:1;fill-rule:nonzero;stroke:#ffffff;stroke-width:6;stroke-linecap:round;stroke-linejoin:round;stroke-miterlimit:4;stroke-dasharray:none;stroke-opacity:1"
         id="rect4936"
         width="48.57143"
         height="71.428574"
         x="350.71432"
         y="496.64792" />
    </g>
  </g>
</svg>
