<?xml version="1.0" encoding="UTF-8" standalone="no"?>
<!-- Created with Inkscape (http://www.inkscape.org/) -->

<svg
   xmlns:dc="http://purl.org/dc/elements/1.1/"
   xmlns:cc="http://creativecommons.org/ns#"
   xmlns:rdf="http://www.w3.org/1999/02/22-rdf-syntax-ns#"
   xmlns:svg="http://www.w3.org/2000/svg"
   xmlns="http://www.w3.org/2000/svg"
   xmlns:sodipodi="http://sodipodi.sourceforge.net/DTD/sodipodi-0.dtd"
   xmlns:inkscape="http://www.inkscape.org/namespaces/inkscape"
   width="360.40851"
   height="401.29218"
   viewBox="0 0 360.4085 401.2922"
   id="svg5083"
   version="1.1"
   inkscape:version="0.91 r13725"
   sodipodi:docname="logo.svg">
  <defs
     id="defs5085" />
  <sodipodi:namedview
     id="base"
     pagecolor="#ffffff"
     bordercolor="#666666"
     borderopacity="1.0"
     inkscape:pageopacity="0.0"
     inkscape:pageshadow="2"
     inkscape:zoom="0.35"
     inkscape:cx="-1177.3143"
     inkscape:cy="-174.23012"
     inkscape:document-units="px"
     inkscape:current-layer="layer1"
     showgrid="false"
     fit-margin-top="0"
     fit-margin-left="0"
     fit-margin-right="0"
     fit-margin-bottom="0"
     units="px"
     inkscape:window-width="1536"
     inkscape:window-height="801"
     inkscape:window-x="-8"
     inkscape:window-y="-8"
     inkscape:window-maximized="1" />
  <metadata
     id="metadata5088">
    <rdf:RDF>
      <cc:Work
         rdf:about="">
        <dc:format>image/svg+xml</dc:format>
        <dc:type
           rdf:resource="http://purl.org/dc/dcmitype/StillImage" />
        <dc:title></dc:title>
      </cc:Work>
    </rdf:RDF>
  </metadata>
  <g
     inkscape:label="Layer 1"
     inkscape:groupmode="layer"
     id="layer1"
     transform="translate(-194.79574,-331.71609)">
    <g
       transform="matrix(2.7894637,0,0,2.7894637,-662.8123,-935.40091)"
       id="g5016">
      <g
         style="fill:#ff7f2a;stroke:#ffffff;stroke-width:3.06716561;stroke-miterlimit:4;stroke-dasharray:none"
         transform="matrix(0.74987798,0,0,0.74987798,93.057208,131.60948)"
         id="g4323">
        <path
           sodipodi:nodetypes="cssczc"
           inkscape:connector-curvature="0"
           id="path4173"
           d="m 399.82478,453.16801 c 0,0.83333 -13.16709,23.63938 -13.88877,24.05604 -0.72168,0.41667 -12.8404,-99.09143 -27.77753,0 -0.12421,0.82402 -13.88877,-23.22271 -13.88877,-24.05604 6.43806,-8.83445 20.92232,-21.37558 27.77754,-21.37558 6.85522,0 24.40092,9.76847 27.77753,21.37558 z"
           style="opacity:1;fill:#ff7f2a;fill-opacity:1;fill-rule:nonzero;stroke:#ffffff;stroke-width:3.06716561;stroke-miterlimit:4;stroke-dasharray:none;stroke-opacity:1"
           inkscape:transform-center-y="-71.66251" />
        <path
           inkscape:transform-center-y="-36.57906"
           style="opacity:1;fill:#ff7f2a;fill-opacity:1;fill-rule:nonzero;stroke:#ffffff;stroke-width:3.06716561;stroke-miterlimit:4;stroke-dasharray:none;stroke-opacity:1"
           d="m 322.70482,465.6185 c 0.72169,0.41667 13.88876,23.22273 13.88876,24.05605 1e-5,0.83333 -92.2359,-38.4256 -13.88877,24.05605 0.65152,0.51958 -27.05584,0.41667 -27.77752,10e-6 -4.43183,-9.99275 -8.05064,-28.80705 -4.62303,-34.74385 3.42761,-5.93679 20.6602,-16.24758 32.40056,-13.36826 z"
           id="path4177"
           inkscape:connector-curvature="0"
           sodipodi:nodetypes="cssczc"
           inkscape:transform-center-x="59.277742" />
        <path
           inkscape:transform-center-x="59.713968"
           sodipodi:nodetypes="cssczc"
           inkscape:connector-curvature="0"
           id="path4181"
           d="m 294.92728,538.63159 c 0.72169,-0.41666 27.05586,-0.41665 27.77753,1e-5 0.72169,0.41666 -79.39549,60.66583 13.88877,24.05605 0.77573,-0.30444 -13.16708,23.63938 -13.88875,24.05605 -10.86989,-1.1583 -28.97296,-7.43147 -32.40058,-13.36827 -3.4276,-5.93679 -3.74071,-26.01605 4.62303,-34.74384 z"
           style="opacity:1;fill:#ff7f2a;fill-opacity:1;fill-rule:nonzero;stroke:#ffffff;stroke-width:3.06716561;stroke-miterlimit:4;stroke-dasharray:none;stroke-opacity:1"
           inkscape:transform-center-y="36.3503" />
        <path
           inkscape:transform-center-y="71.662515"
           style="opacity:1;fill:#ff7f2a;fill-opacity:1;fill-rule:nonzero;stroke:#ffffff;stroke-width:3.06716561;stroke-miterlimit:4;stroke-dasharray:none;stroke-opacity:1"
           d="m 344.2697,599.19419 c 10e-6,-0.83333 13.1671,-23.63938 13.88878,-24.05604 0.72168,-0.41667 12.8404,99.09143 27.77753,0 0.12421,-0.82402 13.88877,23.22272 13.88878,24.05603 -6.43806,8.83446 -20.92232,21.37559 -27.77755,21.3756 -6.85521,-1e-5 -24.40092,-9.76848 -27.77754,-21.37559 z"
           id="path4185"
           inkscape:connector-curvature="0"
           sodipodi:nodetypes="cssczc" />
        <path
           sodipodi:nodetypes="cssczc"
           inkscape:connector-curvature="0"
           id="path4189"
           d="m 449.1672,513.73062 c -0.72168,0.41665 -27.05585,0.41664 -27.77752,-2e-5 -0.72169,-0.41666 79.39549,-60.66583 -13.88877,-24.05605 -0.77573,0.30444 13.16708,-23.63939 13.88874,-24.05605 10.8699,1.15829 28.97297,7.43147 32.40059,13.36826 3.4276,5.9368 3.74071,26.01606 -4.62304,34.74386 z"
           style="opacity:1;fill:#ff7f2a;fill-opacity:1;fill-rule:nonzero;stroke:#ffffff;stroke-width:3.06716561;stroke-miterlimit:4;stroke-dasharray:none;stroke-opacity:1"
           inkscape:transform-center-y="-36.3503"
           inkscape:transform-center-x="-59.713968" />
        <path
           inkscape:transform-center-x="-59.277745"
           inkscape:transform-center-y="36.579059"
           style="opacity:1;fill:#ff7f2a;fill-opacity:1;fill-rule:nonzero;stroke:#ffffff;stroke-width:3.06716561;stroke-miterlimit:4;stroke-dasharray:none;stroke-opacity:1"
           d="m 421.38965,586.7437 c -0.72166,-0.41667 -13.88874,-23.22273 -13.88874,-24.05605 0,-0.83333 92.2359,38.4256 13.88877,-24.05605 -0.65152,-0.51958 27.05585,-0.41667 27.77752,-2e-5 4.43184,9.99275 8.05064,28.80706 4.62304,34.74386 -3.42762,5.93679 -20.66021,16.24758 -32.40059,13.36826 z"
           id="path4193"
           inkscape:connector-curvature="0"
           sodipodi:nodetypes="cssczc" />
      </g>
      <g
         style="fill:#ff7f2a;stroke:#ffffff;stroke-width:3.42140174;stroke-miterlimit:4;stroke-dasharray:none"
         id="g4963"
         transform="matrix(0.58217614,0.33611955,-0.33611955,0.58217614,332.30997,94.798668)">
        <path
           inkscape:transform-center-y="-71.66251"
           style="opacity:1;fill:#ff7f2a;fill-opacity:1;fill-rule:nonzero;stroke:#ffffff;stroke-width:3.42140174;stroke-miterlimit:4;stroke-dasharray:none;stroke-opacity:1"
           d="m 399.82478,453.16801 c 0,0.83333 -13.16709,23.63938 -13.88877,24.05604 -0.72168,0.41667 -12.8404,-99.09143 -27.77753,0 -0.12421,0.82402 -13.88877,-23.22271 -13.88877,-24.05604 6.43806,-8.83445 20.92232,-21.37558 27.77754,-21.37558 6.85522,0 24.40092,9.76847 27.77753,21.37558 z"
           id="path4965"
           inkscape:connector-curvature="0"
           sodipodi:nodetypes="cssczc" />
        <path
           inkscape:transform-center-x="59.277742"
           sodipodi:nodetypes="cssczc"
           inkscape:connector-curvature="0"
           id="path4967"
           d="m 322.70482,465.6185 c 0.72169,0.41667 13.88876,23.22273 13.88876,24.05605 1e-5,0.83333 -92.2359,-38.4256 -13.88877,24.05605 0.65152,0.51958 -27.05584,0.41667 -27.77752,10e-6 -4.43183,-9.99275 -8.05064,-28.80705 -4.62303,-34.74385 3.42761,-5.93679 20.6602,-16.24758 32.40056,-13.36826 z"
           style="opacity:1;fill:#ff7f2a;fill-opacity:1;fill-rule:nonzero;stroke:#ffffff;stroke-width:3.42140174;stroke-miterlimit:4;stroke-dasharray:none;stroke-opacity:1"
           inkscape:transform-center-y="-36.57906" />
        <path
           inkscape:transform-center-y="36.3503"
           style="opacity:1;fill:#ff7f2a;fill-opacity:1;fill-rule:nonzero;stroke:#ffffff;stroke-width:3.42140174;stroke-miterlimit:4;stroke-dasharray:none;stroke-opacity:1"
           d="m 294.92728,538.63159 c 0.72169,-0.41666 27.05586,-0.41665 27.77753,1e-5 0.72169,0.41666 -79.39549,60.66583 13.88877,24.05605 0.77573,-0.30444 -13.16708,23.63938 -13.88875,24.05605 -10.86989,-1.1583 -28.97296,-7.43147 -32.40058,-13.36827 -3.4276,-5.93679 -3.74071,-26.01605 4.62303,-34.74384 z"
           id="path4969"
           inkscape:connector-curvature="0"
           sodipodi:nodetypes="cssczc"
           inkscape:transform-center-x="59.713968" />
        <path
           sodipodi:nodetypes="cssczc"
           inkscape:connector-curvature="0"
           id="path4971"
           d="m 344.2697,599.19419 c 10e-6,-0.83333 13.1671,-23.63938 13.88878,-24.05604 0.72168,-0.41667 12.8404,99.09143 27.77753,0 0.12421,-0.82402 13.88877,23.22272 13.88878,24.05603 -6.43806,8.83446 -20.92232,21.37559 -27.77755,21.3756 -6.85521,-1e-5 -24.40092,-9.76848 -27.77754,-21.37559 z"
           style="opacity:1;fill:#ff7f2a;fill-opacity:1;fill-rule:nonzero;stroke:#ffffff;stroke-width:3.42140174;stroke-miterlimit:4;stroke-dasharray:none;stroke-opacity:1"
           inkscape:transform-center-y="71.662515" />
        <path
           inkscape:transform-center-x="-59.713968"
           inkscape:transform-center-y="-36.3503"
           style="opacity:1;fill:#ff7f2a;fill-opacity:1;fill-rule:nonzero;stroke:#ffffff;stroke-width:3.42140174;stroke-miterlimit:4;stroke-dasharray:none;stroke-opacity:1"
           d="m 449.1672,513.73062 c -0.72168,0.41665 -27.05585,0.41664 -27.77752,-2e-5 -0.72169,-0.41666 79.39549,-60.66583 -13.88877,-24.05605 -0.77573,0.30444 13.16708,-23.63939 13.88874,-24.05605 10.8699,1.15829 28.97297,7.43147 32.40059,13.36826 3.4276,5.9368 3.74071,26.01606 -4.62304,34.74386 z"
           id="path4973"
           inkscape:connector-curvature="0"
           sodipodi:nodetypes="cssczc" />
        <path
           sodipodi:nodetypes="cssczc"
           inkscape:connector-curvature="0"
           id="path4975"
           d="m 421.38965,586.7437 c -0.72166,-0.41667 -13.88874,-23.22273 -13.88874,-24.05605 0,-0.83333 92.2359,38.4256 13.88877,-24.05605 -0.65152,-0.51958 27.05585,-0.41667 27.77752,-2e-5 4.43184,9.99275 8.05064,28.80706 4.62304,34.74386 -3.42762,5.93679 -20.66021,16.24758 -32.40059,13.36826 z"
           style="opacity:1;fill:#ff7f2a;fill-opacity:1;fill-rule:nonzero;stroke:#ffffff;stroke-width:3.42140174;stroke-miterlimit:4;stroke-dasharray:none;stroke-opacity:1"
           inkscape:transform-center-y="36.579059"
           inkscape:transform-center-x="-59.277745" />
      </g>
      <g
         style="fill:#ff7f2a;stroke:#ffffff;stroke-width:0;stroke-miterlimit:4;stroke-dasharray:none"
         transform="matrix(0.40690885,0,0,0.40690885,220.65793,312.07335)"
         id="g4977">
        <path
           sodipodi:nodetypes="cssczc"
           inkscape:connector-curvature="0"
           id="path4979"
           d="m 399.82478,453.16801 c 0,0.83333 -13.16709,23.63938 -13.88877,24.05604 -0.72168,0.41667 -12.8404,-99.09143 -27.77753,0 -0.12421,0.82402 -13.88877,-23.22271 -13.88877,-24.05604 6.43806,-8.83445 20.92232,-21.37558 27.77754,-21.37558 6.85522,0 24.40092,9.76847 27.77753,21.37558 z"
           style="opacity:1;fill:#ff7f2a;fill-opacity:1;fill-rule:nonzero;stroke:#ffffff;stroke-width:0;stroke-miterlimit:4;stroke-dasharray:none;stroke-opacity:1"
           inkscape:transform-center-y="-71.66251" />
        <path
           inkscape:transform-center-y="-36.57906"
           style="opacity:1;fill:#ff7f2a;fill-opacity:1;fill-rule:nonzero;stroke:#ffffff;stroke-width:0;stroke-miterlimit:4;stroke-dasharray:none;stroke-opacity:1"
           d="m 322.70482,465.6185 c 0.72169,0.41667 13.88876,23.22273 13.88876,24.05605 1e-5,0.83333 -92.2359,-38.4256 -13.88877,24.05605 0.65152,0.51958 -27.05584,0.41667 -27.77752,10e-6 -4.43183,-9.99275 -8.05064,-28.80705 -4.62303,-34.74385 3.42761,-5.93679 20.6602,-16.24758 32.40056,-13.36826 z"
           id="path4981"
           inkscape:connector-curvature="0"
           sodipodi:nodetypes="cssczc"
           inkscape:transform-center-x="59.277742" />
        <path
           inkscape:transform-center-x="59.713968"
           sodipodi:nodetypes="cssczc"
           inkscape:connector-curvature="0"
           id="path4983"
           d="m 294.92728,538.63159 c 0.72169,-0.41666 27.05586,-0.41665 27.77753,1e-5 0.72169,0.41666 -79.39549,60.66583 13.88877,24.05605 0.77573,-0.30444 -13.16708,23.63938 -13.88875,24.05605 -10.86989,-1.1583 -28.97296,-7.43147 -32.40058,-13.36827 -3.4276,-5.93679 -3.74071,-26.01605 4.62303,-34.74384 z"
           style="opacity:1;fill:#ff7f2a;fill-opacity:1;fill-rule:nonzero;stroke:#ffffff;stroke-width:0;stroke-miterlimit:4;stroke-dasharray:none;stroke-opacity:1"
           inkscape:transform-center-y="36.3503" />
        <path
           inkscape:transform-center-y="71.662515"
           style="opacity:1;fill:#ff7f2a;fill-opacity:1;fill-rule:nonzero;stroke:#ffffff;stroke-width:0;stroke-miterlimit:4;stroke-dasharray:none;stroke-opacity:1"
           d="m 344.2697,599.19419 c 10e-6,-0.83333 13.1671,-23.63938 13.88878,-24.05604 0.72168,-0.41667 12.8404,99.09143 27.77753,0 0.12421,-0.82402 13.88877,23.22272 13.88878,24.05603 -6.43806,8.83446 -20.92232,21.37559 -27.77755,21.3756 -6.85521,-1e-5 -24.40092,-9.76848 -27.77754,-21.37559 z"
           id="path4985"
           inkscape:connector-curvature="0"
           sodipodi:nodetypes="cssczc" />
        <path
           sodipodi:nodetypes="cssczc"
           inkscape:connector-curvature="0"
           id="path4987"
           d="m 449.1672,513.73062 c -0.72168,0.41665 -27.05585,0.41664 -27.77752,-2e-5 -0.72169,-0.41666 79.39549,-60.66583 -13.88877,-24.05605 -0.77573,0.30444 13.16708,-23.63939 13.88874,-24.05605 10.8699,1.15829 28.97297,7.43147 32.40059,13.36826 3.4276,5.9368 3.74071,26.01606 -4.62304,34.74386 z"
           style="opacity:1;fill:#ff7f2a;fill-opacity:1;fill-rule:nonzero;stroke:#ffffff;stroke-width:0;stroke-miterlimit:4;stroke-dasharray:none;stroke-opacity:1"
           inkscape:transform-center-y="-36.3503"
           inkscape:transform-center-x="-59.713968" />
        <path
           inkscape:transform-center-x="-59.277745"
           inkscape:transform-center-y="36.579059"
           style="opacity:1;fill:#ff7f2a;fill-opacity:1;fill-rule:nonzero;stroke:#ffffff;stroke-width:0;stroke-miterlimit:4;stroke-dasharray:none;stroke-opacity:1"
           d="m 421.38965,586.7437 c -0.72166,-0.41667 -13.88874,-23.22273 -13.88874,-24.05605 0,-0.83333 92.2359,38.4256 13.88877,-24.05605 -0.65152,-0.51958 27.05585,-0.41667 27.77752,-2e-5 4.43184,9.99275 8.05064,28.80706 4.62304,34.74386 -3.42762,5.93679 -20.66021,16.24758 -32.40059,13.36826 z"
           id="path4989"
           inkscape:connector-curvature="0"
           sodipodi:nodetypes="cssczc" />
      </g>
      <g
         style="fill:#ff7f2a;stroke:#ffffff;stroke-width:0;stroke-miterlimit:4;stroke-dasharray:none"
         id="g4991"
         transform="matrix(0.21722708,0.12541611,-0.12541611,0.21722708,357.22009,365.2196)">
        <path
           inkscape:transform-center-y="-71.66251"
           style="opacity:1;fill:#ff7f2a;fill-opacity:1;fill-rule:nonzero;stroke:#ffffff;stroke-width:0;stroke-miterlimit:4;stroke-dasharray:none;stroke-opacity:1"
           d="m 399.82478,453.16801 c 0,0.83333 -13.16709,23.63938 -13.88877,24.05604 -0.72168,0.41667 -12.8404,-99.09143 -27.77753,0 -0.12421,0.82402 -13.88877,-23.22271 -13.88877,-24.05604 6.43806,-8.83445 20.92232,-21.37558 27.77754,-21.37558 6.85522,0 24.40092,9.76847 27.77753,21.37558 z"
           id="path4993"
           inkscape:connector-curvature="0"
           sodipodi:nodetypes="cssczc" />
        <path
           inkscape:transform-center-x="59.277742"
           sodipodi:nodetypes="cssczc"
           inkscape:connector-curvature="0"
           id="path4995"
           d="m 322.70482,465.6185 c 0.72169,0.41667 13.88876,23.22273 13.88876,24.05605 1e-5,0.83333 -92.2359,-38.4256 -13.88877,24.05605 0.65152,0.51958 -27.05584,0.41667 -27.77752,10e-6 -4.43183,-9.99275 -8.05064,-28.80705 -4.62303,-34.74385 3.42761,-5.93679 20.6602,-16.24758 32.40056,-13.36826 z"
           style="opacity:1;fill:#ff7f2a;fill-opacity:1;fill-rule:nonzero;stroke:#ffffff;stroke-width:0;stroke-miterlimit:4;stroke-dasharray:none;stroke-opacity:1"
           inkscape:transform-center-y="-36.57906" />
        <path
           inkscape:transform-center-y="36.3503"
           style="opacity:1;fill:#ff7f2a;fill-opacity:1;fill-rule:nonzero;stroke:#ffffff;stroke-width:0;stroke-miterlimit:4;stroke-dasharray:none;stroke-opacity:1"
           d="m 294.92728,538.63159 c 0.72169,-0.41666 27.05586,-0.41665 27.77753,1e-5 0.72169,0.41666 -79.39549,60.66583 13.88877,24.05605 0.77573,-0.30444 -13.16708,23.63938 -13.88875,24.05605 -10.86989,-1.1583 -28.97296,-7.43147 -32.40058,-13.36827 -3.4276,-5.93679 -3.74071,-26.01605 4.62303,-34.74384 z"
           id="path4997"
           inkscape:connector-curvature="0"
           sodipodi:nodetypes="cssczc"
           inkscape:transform-center-x="59.713968" />
        <path
           sodipodi:nodetypes="cssczc"
           inkscape:connector-curvature="0"
           id="path4999"
           d="m 344.2697,599.19419 c 10e-6,-0.83333 13.1671,-23.63938 13.88878,-24.05604 0.72168,-0.41667 12.8404,99.09143 27.77753,0 0.12421,-0.82402 13.88877,23.22272 13.88878,24.05603 -6.43806,8.83446 -20.92232,21.37559 -27.77755,21.3756 -6.85521,-1e-5 -24.40092,-9.76848 -27.77754,-21.37559 z"
           style="opacity:1;fill:#ff7f2a;fill-opacity:1;fill-rule:nonzero;stroke:#ffffff;stroke-width:0;stroke-miterlimit:4;stroke-dasharray:none;stroke-opacity:1"
           inkscape:transform-center-y="71.662515" />
        <path
           inkscape:transform-center-x="-59.713968"
           inkscape:transform-center-y="-36.3503"
           style="opacity:1;fill:#ff7f2a;fill-opacity:1;fill-rule:nonzero;stroke:#ffffff;stroke-width:0;stroke-miterlimit:4;stroke-dasharray:none;stroke-opacity:1"
           d="m 449.1672,513.73062 c -0.72168,0.41665 -27.05585,0.41664 -27.77752,-2e-5 -0.72169,-0.41666 79.39549,-60.66583 -13.88877,-24.05605 -0.77573,0.30444 13.16708,-23.63939 13.88874,-24.05605 10.8699,1.15829 28.97297,7.43147 32.40059,13.36826 3.4276,5.9368 3.74071,26.01606 -4.62304,34.74386 z"
           id="path5001"
           inkscape:connector-curvature="0"
           sodipodi:nodetypes="cssczc" />
        <path
           sodipodi:nodetypes="cssczc"
           inkscape:connector-curvature="0"
           id="path5003"
           d="m 421.38965,586.7437 c -0.72166,-0.41667 -13.88874,-23.22273 -13.88874,-24.05605 0,-0.83333 92.2359,38.4256 13.88877,-24.05605 -0.65152,-0.51958 27.05585,-0.41667 27.77752,-2e-5 4.43184,9.99275 8.05064,28.80706 4.62304,34.74386 -3.42762,5.93679 -20.66021,16.24758 -32.40059,13.36826 z"
           style="opacity:1;fill:#ff7f2a;fill-opacity:1;fill-rule:nonzero;stroke:#ffffff;stroke-width:0;stroke-miterlimit:4;stroke-dasharray:none;stroke-opacity:1"
           inkscape:transform-center-y="36.579059"
           inkscape:transform-center-x="-59.277745" />
      </g>
    </g>
  </g>
</svg>
